<svg width="20" height="20" viewBox="0 0 20 20" fill="none" xmlns="http://www.w3.org/2000/svg">
<g clip-path="url(#clip0_596566_8493)">
<path d="M19.4763 14.1202V5.87984C19.4642 4.44594 18.8759 3.07509 17.8401 2.06698C16.8042 1.05887 15.4051 0.495496 13.9485 0.500027H6.00296C4.54661 0.495796 3.14777 1.0593 2.11218 2.06738C1.07658 3.07546 0.488448 4.44614 0.476318 5.87984V14.1202C0.488448 15.5539 1.07658 16.9246 2.11218 17.9327C3.14777 18.9408 4.54661 19.5043 6.00296 19.5H13.9485C15.4051 19.5046 16.8042 18.9412 17.8401 17.9331C18.8759 16.925 19.4642 15.5541 19.4763 14.1202M18.016 14.1202C18.0159 14.6409 17.91 15.1563 17.7046 15.6361C17.4991 16.1159 17.1983 16.5504 16.8198 16.9141C16.0574 17.6609 15.0252 18.0796 13.9497 18.0782H6.00411C4.92854 18.0798 3.89629 17.6611 3.13402 16.9141C2.75528 16.5505 2.45423 16.1161 2.24859 15.6363C2.04295 15.1564 1.93688 14.641 1.93662 14.1202V5.87984C1.93673 5.35915 2.04262 4.84373 2.24806 4.36393C2.4535 3.88412 2.75434 3.44961 3.13287 3.08595C3.89514 2.33892 4.92739 1.92023 6.00296 1.92183H13.9485C15.024 1.92048 16.0562 2.33913 16.8186 3.08595C17.1974 3.44951 17.4984 3.88398 17.704 4.36379C17.9097 4.84361 18.0158 5.35907 18.016 5.87984V14.1202ZM16.5603 4.75528C16.5594 4.59602 16.5266 4.4385 16.4639 4.2917C16.4012 4.14491 16.3097 4.01172 16.1946 3.89974C16.0796 3.78775 15.9433 3.69917 15.7935 3.63905C15.6437 3.57893 15.4833 3.54845 15.3216 3.54934C15.1596 3.54815 14.999 3.57841 14.8489 3.6384C14.6989 3.69839 14.5623 3.78692 14.447 3.89893C14.3318 4.01094 14.2401 4.14423 14.1772 4.29118C14.1143 4.43812 14.0814 4.59583 14.0805 4.75528C14.0814 4.91472 14.1143 5.07243 14.1772 5.21937C14.2401 5.36632 14.3318 5.49961 14.447 5.61162C14.5623 5.72363 14.6989 5.81216 14.8489 5.87215C14.999 5.93214 15.1596 5.9624 15.3216 5.96121C15.4833 5.96211 15.6437 5.93162 15.7935 5.8715C15.9433 5.81138 16.0796 5.7228 16.1946 5.61082C16.3097 5.49883 16.4012 5.36564 16.4639 5.21885C16.5266 5.07206 16.5594 4.91453 16.5603 4.75528M15.2378 9.92713C15.2339 9.25448 15.0954 8.58917 14.8303 7.9692C14.5652 7.34923 14.1787 6.78673 13.6928 6.31382C13.2069 5.84092 12.6311 5.46686 11.9984 5.21302C11.3656 4.95918 10.6883 4.83052 10.005 4.83439C9.32182 4.83052 8.64453 4.95919 8.01185 5.21304C7.37916 5.4669 6.80347 5.84097 6.31765 6.31389C5.83184 6.78681 5.44541 7.34932 5.18045 7.96929C4.91549 8.58925 4.77718 9.25453 4.77342 9.92713C4.77657 10.6001 4.91444 11.2659 5.17914 11.8864C5.44383 12.5068 5.83016 13.0699 6.31604 13.5433C6.80191 14.0167 7.37781 14.3912 8.01079 14.6453C8.64377 14.8994 9.32143 15.0283 10.005 15.0244C10.6887 15.0283 11.3664 14.8994 11.9994 14.6453C12.6325 14.3912 13.2084 14.0167 13.6944 13.5434C14.1804 13.07 14.5668 12.5069 14.8316 11.8864C15.0965 11.266 15.2345 10.6002 15.2378 9.92713ZM13.4009 9.92713C13.3967 10.8162 13.0341 11.6672 12.3928 12.2933C11.7515 12.9193 10.884 13.2691 9.98091 13.2658C9.53345 13.2683 9.08986 13.184 8.67547 13.0178C8.26109 12.8516 7.88402 12.6066 7.5658 12.2969C7.24758 11.9872 6.99445 11.6188 6.82085 11.2128C6.64725 10.8067 6.55658 10.371 6.55402 9.93052C6.55949 9.04105 6.92357 8.19013 7.56621 7.56489C8.20884 6.93965 9.07741 6.59128 9.98091 6.59639C10.4282 6.59386 10.8717 6.67809 11.2859 6.84428C11.7002 7.01047 12.0771 7.25536 12.3952 7.56496C12.7133 7.87456 12.9664 8.24282 13.1399 8.6487C13.3135 9.05459 13.4041 9.49015 13.4067 9.93052" fill="white"/>
</g>
<defs>
<clipPath id="clip0_596566_8493">
<rect width="19" height="19" fill="white" transform="translate(0.476318 0.5)"/>
</clipPath>
</defs>
</svg>
