<svg width="20" height="20" viewBox="0 0 20 20" fill="none" xmlns="http://www.w3.org/2000/svg">
<g clip-path="url(#clip0_596566_8648)">
<path d="M19.4763 14.5982V6.35786C19.4642 4.92397 18.8759 3.55312 17.8401 2.54501C16.8042 1.53689 15.4051 0.973524 13.9485 0.978054H6.00296C4.54661 0.973823 3.14777 1.53733 2.11218 2.54541C1.07658 3.55349 0.488448 4.92416 0.476318 6.35786V14.5982C0.488448 16.0319 1.07658 17.4026 2.11218 18.4107C3.14777 19.4188 4.54661 19.9823 6.00296 19.9781H13.9485C15.4051 19.9826 16.8042 19.4192 17.8401 18.4111C18.8759 17.403 19.4642 16.0321 19.4763 14.5982M18.016 14.5982C18.0159 15.1189 17.91 15.6343 17.7046 16.1142C17.4991 16.594 17.1983 17.0285 16.8198 17.3921C16.0574 18.139 15.0252 18.5576 13.9497 18.5562H6.00411C4.92854 18.5578 3.89629 18.1392 3.13402 17.3921C2.75528 17.0286 2.45423 16.5941 2.24859 16.1143C2.04295 15.6345 1.93688 15.119 1.93662 14.5982V6.35786C1.93673 5.83717 2.04262 5.32176 2.24806 4.84195C2.4535 4.36215 2.75434 3.92764 3.13287 3.56398C3.89514 2.81695 4.92739 2.39826 6.00296 2.39986H13.9485C15.024 2.39851 16.0562 2.81716 16.8186 3.56398C17.1974 3.92754 17.4984 4.36201 17.704 4.84182C17.9097 5.32163 18.0158 5.83709 18.016 6.35786V14.5982ZM16.5603 5.2333C16.5594 5.07405 16.5266 4.91652 16.4639 4.76973C16.4012 4.62294 16.3097 4.48974 16.1946 4.37776C16.0796 4.26578 15.9433 4.1772 15.7935 4.11708C15.6437 4.05696 15.4833 4.02647 15.3216 4.02737C15.1596 4.02618 14.999 4.05644 14.8489 4.11643C14.6989 4.17641 14.5623 4.26495 14.447 4.37696C14.3318 4.48897 14.2401 4.62226 14.1772 4.7692C14.1143 4.91615 14.0814 5.07385 14.0805 5.2333C14.0814 5.39275 14.1143 5.55046 14.1772 5.6974C14.2401 5.84434 14.3318 5.97764 14.447 6.08965C14.5623 6.20166 14.6989 6.29019 14.8489 6.35018C14.999 6.41017 15.1596 6.44043 15.3216 6.43924C15.4833 6.44013 15.6437 6.40965 15.7935 6.34953C15.9433 6.28941 16.0796 6.20083 16.1946 6.08884C16.3097 5.97686 16.4012 5.84367 16.4639 5.69688C16.5266 5.55008 16.5594 5.39256 16.5603 5.2333M15.2378 10.4052C15.2339 9.7325 15.0954 9.0672 14.8303 8.44723C14.5652 7.82725 14.1787 7.26476 13.6928 6.79185C13.2069 6.31894 12.6311 5.94489 11.9984 5.69105C11.3656 5.43721 10.6883 5.30855 10.005 5.31242C9.32182 5.30855 8.64453 5.43722 8.01185 5.69107C7.37916 5.94493 6.80347 6.319 6.31765 6.79192C5.83184 7.26484 5.44541 7.82735 5.18045 8.44731C4.91549 9.06728 4.77718 9.73256 4.77342 10.4052C4.77657 11.0781 4.91444 11.7439 5.17914 12.3644C5.44383 12.9849 5.83016 13.5479 6.31604 14.0213C6.80191 14.4947 7.37781 14.8692 8.01079 15.1233C8.64377 15.3775 9.32143 15.5063 10.005 15.5024C10.6887 15.5063 11.3664 15.3775 11.9994 15.1233C12.6325 14.8692 13.2084 14.4948 13.6944 14.0214C14.1804 13.548 14.5668 12.985 14.8316 12.3645C15.0965 11.744 15.2345 11.0782 15.2378 10.4052ZM13.4009 10.4052C13.3967 11.2942 13.0341 12.1453 12.3928 12.7713C11.7515 13.3973 10.884 13.7471 9.98091 13.7438C9.53345 13.7463 9.08986 13.6621 8.67547 13.4958C8.26109 13.3296 7.88402 13.0846 7.5658 12.7749C7.24758 12.4652 6.99445 12.0968 6.82085 11.6908C6.64725 11.2848 6.55658 10.8491 6.55402 10.4085C6.55949 9.51908 6.92357 8.66816 7.56621 8.04292C8.20884 7.41768 9.07741 7.06931 9.98091 7.07442C10.4282 7.07189 10.8717 7.15612 11.2859 7.32231C11.7002 7.4885 12.0771 7.73338 12.3952 8.04299C12.7133 8.35259 12.9664 8.72085 13.1399 9.12673C13.3135 9.53262 13.4041 9.96818 13.4067 10.4085" fill="#000045"/>
</g>
<defs>
<clipPath id="clip0_596566_8648">
<rect width="19" height="19" fill="white" transform="translate(0.476318 0.978027)"/>
</clipPath>
</defs>
</svg>
