<svg width="19" height="19" viewBox="0 0 19 19" fill="none" xmlns="http://www.w3.org/2000/svg">
<g clip-path="url(#clip0_596566_8644)">
<path d="M17.6453 0.977991H2.30626C1.95984 0.971796 1.62515 1.10413 1.37577 1.34589C1.12639 1.58765 0.982735 1.91906 0.976379 2.26726V17.6887C0.982735 18.0369 1.12639 18.3683 1.37577 18.6101C1.62515 18.8519 1.95984 18.9842 2.30626 18.978H17.6453C17.9918 18.9842 18.3265 18.8519 18.5758 18.6101C18.8252 18.3683 18.9689 18.0369 18.9752 17.6887V2.26726C18.9689 1.91906 18.8252 1.58765 18.5758 1.34589C18.3265 1.10413 17.9918 0.971796 17.6453 0.977991M3.71328 7.92199H6.43176V16.0499H3.71328V7.92199ZM3.71328 16.0499L5.0731 6.81326H5.05583C4.86372 6.82743 4.67077 6.80161 4.48905 6.7374C4.30733 6.6732 4.14074 6.57199 3.99971 6.44012C3.85867 6.30825 3.74623 6.14854 3.66941 5.97099C3.59258 5.79345 3.55304 5.60187 3.55324 5.40826C3.55384 5.21127 3.59525 5.01657 3.67482 4.83655C3.75439 4.65653 3.87038 4.49513 4.01541 4.36264C4.16044 4.23014 4.33133 4.12946 4.51719 4.06699C4.70306 4.00452 4.89983 3.98163 5.09498 3.99979C5.28818 3.98399 5.48255 4.00852 5.66587 4.07184C5.84919 4.13516 6.0175 4.23591 6.16023 4.36774C6.30296 4.49958 6.41703 4.65966 6.49526 4.83792C6.57349 5.01619 6.61421 5.20879 6.61484 5.40363C6.61354 5.59995 6.57176 5.79387 6.49213 5.97314C6.4125 6.15241 6.29675 6.31314 6.15219 6.44517C6.00764 6.5772 5.83741 6.67767 5.65227 6.74023C5.46714 6.80279 5.2711 6.82608 5.07655 6.80863M16.2395 16.0453H13.5175V11.6984C13.5175 10.6047 13.1238 9.85936 12.1359 9.85936C11.8304 9.86019 11.5327 9.95549 11.283 10.1323C11.0333 10.3091 10.8439 10.5589 10.7403 10.8477C10.6708 11.0603 10.6404 11.2839 10.6505 11.5074V16.0453H7.93666C7.93666 16.0453 7.9735 8.68004 7.93666 7.92199H10.6551V9.07353C10.9035 8.64668 11.263 8.29606 11.695 8.05948C12.127 7.8229 12.615 7.70933 13.1065 7.73103C14.8946 7.73103 16.236 8.88836 16.236 11.3894L16.2395 16.0453Z" fill="#000045"/>
</g>
<defs>
<clipPath id="clip0_596566_8644">
<rect width="18" height="18" fill="white" transform="translate(0.976379 0.978027)"/>
</clipPath>
</defs>
</svg>
