<svg width="25" height="25" viewBox="0 0 25 25" fill="none" xmlns="http://www.w3.org/2000/svg">
<path d="M12.8101 5.3851L9.98167 8.21352L11.3959 9.62774L14.2243 6.79931C15.391 5.63259 17.3002 5.63259 18.4669 6.79931C19.6337 7.96604 19.6337 9.87523 18.4669 11.042L15.6385 13.8704L17.0527 15.2846L19.8812 12.4562C21.8328 10.5046 21.8328 7.33671 19.8812 5.3851C17.9295 3.43348 14.7617 3.43348 12.8101 5.3851ZM14.2243 15.2846L11.3959 18.113C10.2292 19.2797 8.31996 19.2797 7.15324 18.113C5.98651 16.9463 5.98651 15.0371 7.15324 13.8704L9.98167 11.042L8.56745 9.62774L5.73903 12.4562C3.78741 14.4078 3.78741 17.5756 5.73903 19.5272C7.69064 21.4788 10.8585 21.4788 12.8101 19.5272L15.6385 16.6988L14.2243 15.2846ZM9.27456 14.5775L14.9314 8.92063L16.3456 10.3348L10.6888 15.9917L9.27456 14.5775Z" fill="#000045"/>
</svg>
