<svg width="19" height="19" viewBox="0 0 19 19" fill="none" xmlns="http://www.w3.org/2000/svg">
<g clip-path="url(#clip0_596566_8489)">
<path d="M17.6453 0.499964H2.30626C1.95984 0.493769 1.62515 0.626099 1.37577 0.867863C1.12639 1.10963 0.982735 1.44104 0.976379 1.78923V17.2107C0.982735 17.5589 1.12639 17.8903 1.37577 18.1321C1.62515 18.3738 1.95984 18.5062 2.30626 18.5H17.6453C17.9918 18.5062 18.3265 18.3738 18.5758 18.1321C18.8252 17.8903 18.9689 17.5589 18.9752 17.2107V1.78923C18.9689 1.44104 18.8252 1.10963 18.5758 0.867863C18.3265 0.626099 17.9918 0.493769 17.6453 0.499964M3.71328 7.44396H6.43176V15.5719H3.71328V7.44396ZM3.71328 15.5719L5.0731 6.33524H5.05583C4.86372 6.34941 4.67077 6.32358 4.48905 6.25938C4.30733 6.19517 4.14074 6.09397 3.99971 5.96209C3.85867 5.83022 3.74623 5.67052 3.66941 5.49297C3.59258 5.31542 3.55304 5.12385 3.55324 4.93023C3.55384 4.73325 3.59525 4.53854 3.67482 4.35852C3.75439 4.1785 3.87038 4.0171 4.01541 3.88461C4.16044 3.75212 4.33133 3.65143 4.51719 3.58896C4.70306 3.52649 4.89983 3.5036 5.09498 3.52176C5.28818 3.50596 5.48255 3.53049 5.66587 3.59381C5.84919 3.65714 6.0175 3.75788 6.16023 3.88971C6.30296 4.02155 6.41703 4.18163 6.49526 4.3599C6.57349 4.53816 6.61421 4.73077 6.61484 4.9256C6.61354 5.12193 6.57176 5.31585 6.49213 5.49511C6.4125 5.67438 6.29675 5.83511 6.15219 5.96714C6.00764 6.09917 5.83741 6.19964 5.65227 6.2622C5.46714 6.32476 5.2711 6.34805 5.07655 6.33061M16.2395 15.5673H13.5175V11.2203C13.5175 10.1267 13.1238 9.38134 12.1359 9.38134C11.8304 9.38217 11.5327 9.47746 11.283 9.65429C11.0333 9.83111 10.8439 10.0809 10.7403 10.3697C10.6708 10.5823 10.6404 10.8058 10.6505 11.0294V15.5673H7.93666C7.93666 15.5673 7.9735 8.20201 7.93666 7.44396H10.6551V8.59551C10.9035 8.16865 11.263 7.81804 11.695 7.58145C12.127 7.34487 12.615 7.23131 13.1065 7.253C14.8946 7.253 16.236 8.41034 16.236 10.9113L16.2395 15.5673Z" fill="white"/>
</g>
<defs>
<clipPath id="clip0_596566_8489">
<rect width="18" height="18" fill="white" transform="translate(0.976379 0.5)"/>
</clipPath>
</defs>
</svg>
