<svg width="181" height="38" viewBox="0 0 181 38" fill="none" xmlns="http://www.w3.org/2000/svg">
<g clip-path="url(#clip0_596566_8462)">
<path d="M180.017 32.0892H104.543V37.0045H180.017V32.0892Z" fill="#000045"/>
<path d="M73.9341 32.0892H63.7346V37.0045H73.9341V32.0892Z" fill="#FF38D1"/>
<path d="M90.9437 32.0892H73.9393V37.0045H90.9437V32.0892Z" fill="#C400ED"/>
<path d="M63.7346 32.0892H53.5352V37.0045H63.7346V32.0892Z" fill="#FF8A00"/>
<path d="M53.5351 32.0892H29.7311V37.0045H53.5351V32.0892Z" fill="#36C280"/>
<path d="M29.731 32.0892H0.430054V37.0045H29.731V32.0892Z" fill="#000045"/>
<path d="M114.621 26.0198C124.958 26.0198 130.471 22.9182 130.471 17.7144C130.471 12.5106 124.958 9.40893 114.621 9.40893C104.284 9.40893 98.776 12.5106 98.776 17.7144C98.776 22.9182 104.284 26.0198 114.621 26.0198M107.678 17.7144C107.678 14.7467 108.578 12.0108 114.621 12.0108C120.663 12.0108 121.563 14.7467 121.563 17.7144C121.563 20.6821 120.658 23.4179 114.621 23.4179C108.584 23.4179 107.678 20.6821 107.678 17.7144ZM76.9155 15.8699C76.9155 19.1055 80.8449 22.9439 91.7063 22.9439C94.1211 22.9439 96.0064 22.81 97.7434 22.542V24.8142C94.5765 25.247 91.0337 25.5458 87.2579 25.5458C76.7831 25.5458 68.5112 23.1242 68.0399 17.0858C66.7319 17.1579 65.3815 17.194 64.0152 17.194C59.9534 17.194 56.2253 16.8282 53.1538 16.0347V25.3397H44.776V9.36771C44.776 2.99952 49.6216 0.588257 61.2191 0.588257C72.0064 0.588257 74.8766 3.45807 74.8766 6.3897H65.9746C65.9746 4.85948 65.069 3.185 60.5412 3.185C56.0134 3.185 53.6728 5.12225 53.6728 7.5232C53.6728 10.7537 57.581 14.5766 68.3947 14.5921C69.7292 11.3668 74.6542 8.92462 84.4565 8.92462C95.2491 8.92462 98.1141 11.7944 98.1141 14.7312H89.2067C89.2067 13.1958 88.3012 11.5265 83.7734 11.5265C79.2456 11.5265 76.9049 13.4638 76.9049 15.8596M132.705 15.4783C132.711 15.5968 132.711 15.7101 132.705 15.8286V15.4783ZM169.976 9.16162C164.241 9.16162 160.921 11.1298 159.867 12.3303H159.719C158.66 10.1302 154.963 9.16162 150.658 9.16162C144.774 9.16162 142.211 10.9598 141.226 11.9644H141.078V9.52743H128.85V12.1345C131.133 12.1345 132.61 13.7729 132.7 15.4783V25.4119H141.073V18.5387C141.073 16.0347 143.487 12.6291 148.317 12.6291C151.261 12.6291 152.013 13.0979 152.013 16.3336V25.4119H160.386V18.5387C160.386 16.0347 162.801 12.6291 167.63 12.6291C170.575 12.6291 171.327 13.0979 171.327 16.3336V25.4119H179.705V14.4118C179.705 10.7743 175.256 9.17192 169.966 9.17192M21.7822 25.7674C38.5589 25.7674 43.5474 20.4193 43.5474 13.4895C43.5474 6.55973 38.5589 1.20653 21.7822 1.20653C5.00549 1.20653 0.0169678 6.55458 0.0169678 13.4895C0.0169678 20.4245 4.93135 25.7674 21.7822 25.7674ZM10.0788 13.4895C10.0788 8.41454 12.4936 4.07119 21.7822 4.07119C31.0708 4.07119 33.4856 8.41454 33.4856 13.4895C33.4856 18.5645 30.9861 22.9027 21.7822 22.9027C12.5783 22.9027 10.0788 18.5542 10.0788 13.4895" fill="#E30052"/>
<path d="M104.543 32.0892H90.9385V37.0045H104.543V32.0892Z" fill="#5000F2"/>
</g>
<defs>
<clipPath id="clip0_596566_8462">
<rect width="180" height="36.4162" fill="white" transform="translate(0.0169678 0.588257)"/>
</clipPath>
</defs>
</svg>
