<svg width="44" height="43" viewBox="0 0 44 43" fill="none" xmlns="http://www.w3.org/2000/svg">
<path d="M29.2064 25.5401H27.791L27.2894 25.0564C29.0452 23.0139 30.1023 20.3622 30.1023 17.4776C30.1023 11.0455 24.8885 5.83179 18.4564 5.83179C12.0244 5.83179 6.81061 11.0455 6.81061 17.4776C6.81061 23.9097 12.0244 29.1235 18.4564 29.1235C21.341 29.1235 23.9927 28.0664 26.0352 26.3105L26.5189 26.8122V28.2276L35.4773 37.168L38.1469 34.4985L29.2064 25.5401ZM18.4564 25.5401C13.9952 25.5401 10.3939 21.9389 10.3939 17.4776C10.3939 13.0164 13.9952 9.41512 18.4564 9.41512C22.9177 9.41512 26.5189 13.0164 26.5189 17.4776C26.5189 21.9389 22.9177 25.5401 18.4564 25.5401Z" fill="white"/>
</svg>
