<svg width="44" height="43" viewBox="0 0 44 43" fill="none" xmlns="http://www.w3.org/2000/svg">
<path d="M29.2058 25.5401H27.7904L27.2887 25.0564C29.0446 23.0139 30.1017 20.3622 30.1017 17.4776C30.1017 11.0455 24.8879 5.83179 18.4558 5.83179C12.0237 5.83179 6.81 11.0455 6.81 17.4776C6.81 23.9097 12.0237 29.1235 18.4558 29.1235C21.3404 29.1235 23.9921 28.0664 26.0346 26.3105L26.5183 26.8122V28.2276L35.4767 37.168L38.1462 34.4985L29.2058 25.5401ZM18.4558 25.5401C13.9946 25.5401 10.3933 21.9389 10.3933 17.4776C10.3933 13.0164 13.9946 9.41512 18.4558 9.41512C22.9171 9.41512 26.5183 13.0164 26.5183 17.4776C26.5183 21.9389 22.9171 25.5401 18.4558 25.5401Z" fill="#000045"/>
</svg>
