<svg width="25" height="24" viewBox="0 0 25 24" fill="none" xmlns="http://www.w3.org/2000/svg">
<path d="M18.4785 16.12C17.7185 16.12 17.0385 16.42 16.5185 16.89L9.38845 12.74C9.43845 12.51 9.47845 12.28 9.47845 12.04C9.47845 11.8 9.43845 11.57 9.38845 11.34L16.4385 7.23004C16.9785 7.73004 17.6885 8.04004 18.4785 8.04004C20.1385 8.04004 21.4785 6.70004 21.4785 5.04004C21.4785 3.38004 20.1385 2.04004 18.4785 2.04004C16.8185 2.04004 15.4785 3.38004 15.4785 5.04004C15.4785 5.28004 15.5185 5.51004 15.5685 5.74004L8.51845 9.85004C7.97845 9.35004 7.26845 9.04004 6.47845 9.04004C4.81845 9.04004 3.47845 10.38 3.47845 12.04C3.47845 13.7 4.81845 15.04 6.47845 15.04C7.26845 15.04 7.97845 14.73 8.51845 14.23L15.6385 18.39C15.5885 18.6 15.5585 18.82 15.5585 19.04C15.5585 20.65 16.8685 21.96 18.4785 21.96C20.0885 21.96 21.3985 20.65 21.3985 19.04C21.3985 17.43 20.0885 16.12 18.4785 16.12ZM18.4785 4.04004C19.0285 4.04004 19.4785 4.49004 19.4785 5.04004C19.4785 5.59004 19.0285 6.04004 18.4785 6.04004C17.9285 6.04004 17.4785 5.59004 17.4785 5.04004C17.4785 4.49004 17.9285 4.04004 18.4785 4.04004ZM6.47845 13.04C5.92845 13.04 5.47845 12.59 5.47845 12.04C5.47845 11.49 5.92845 11.04 6.47845 11.04C7.02845 11.04 7.47845 11.49 7.47845 12.04C7.47845 12.59 7.02845 13.04 6.47845 13.04ZM18.4785 20.06C17.9285 20.06 17.4785 19.61 17.4785 19.06C17.4785 18.51 17.9285 18.06 18.4785 18.06C19.0285 18.06 19.4785 18.51 19.4785 19.06C19.4785 19.61 19.0285 20.06 18.4785 20.06Z" fill="#000045"/>
</svg>
