<svg width="25" height="24" viewBox="0 0 25 24" fill="none" xmlns="http://www.w3.org/2000/svg">
<path d="M18.9764 16.12C18.2164 16.12 17.5364 16.42 17.0164 16.89L9.88638 12.74C9.93638 12.51 9.97638 12.28 9.97638 12.04C9.97638 11.8 9.93638 11.57 9.88638 11.34L16.9364 7.23004C17.4764 7.73004 18.1864 8.04004 18.9764 8.04004C20.6364 8.04004 21.9764 6.70004 21.9764 5.04004C21.9764 3.38004 20.6364 2.04004 18.9764 2.04004C17.3164 2.04004 15.9764 3.38004 15.9764 5.04004C15.9764 5.28004 16.0164 5.51004 16.0664 5.74004L9.01638 9.85004C8.47638 9.35004 7.76638 9.04004 6.97638 9.04004C5.31638 9.04004 3.97638 10.38 3.97638 12.04C3.97638 13.7 5.31638 15.04 6.97638 15.04C7.76638 15.04 8.47638 14.73 9.01638 14.23L16.1364 18.39C16.0864 18.6 16.0564 18.82 16.0564 19.04C16.0564 20.65 17.3664 21.96 18.9764 21.96C20.5864 21.96 21.8964 20.65 21.8964 19.04C21.8964 17.43 20.5864 16.12 18.9764 16.12ZM18.9764 4.04004C19.5264 4.04004 19.9764 4.49004 19.9764 5.04004C19.9764 5.59004 19.5264 6.04004 18.9764 6.04004C18.4264 6.04004 17.9764 5.59004 17.9764 5.04004C17.9764 4.49004 18.4264 4.04004 18.9764 4.04004ZM6.97638 13.04C6.42638 13.04 5.97638 12.59 5.97638 12.04C5.97638 11.49 6.42638 11.04 6.97638 11.04C7.52638 11.04 7.97638 11.49 7.97638 12.04C7.97638 12.59 7.52638 13.04 6.97638 13.04ZM18.9764 20.06C18.4264 20.06 17.9764 19.61 17.9764 19.06C17.9764 18.51 18.4264 18.06 18.9764 18.06C19.5264 18.06 19.9764 18.51 19.9764 19.06C19.9764 19.61 19.5264 20.06 18.9764 20.06Z" fill="white"/>
</svg>
