<svg width="19" height="20" viewBox="0 0 19 20" fill="none" xmlns="http://www.w3.org/2000/svg">
<path d="M15.4785 14.12C14.7185 14.12 14.0385 14.42 13.5185 14.89L6.38845 10.74C6.43845 10.51 6.47845 10.28 6.47845 10.04C6.47845 9.80004 6.43845 9.57004 6.38845 9.34004L13.4385 5.23004C13.9785 5.73004 14.6885 6.04004 15.4785 6.04004C17.1385 6.04004 18.4785 4.70004 18.4785 3.04004C18.4785 1.38004 17.1385 0.0400391 15.4785 0.0400391C13.8185 0.0400391 12.4785 1.38004 12.4785 3.04004C12.4785 3.28004 12.5185 3.51004 12.5685 3.74004L5.51845 7.85004C4.97845 7.35004 4.26845 7.04004 3.47845 7.04004C1.81845 7.04004 0.478455 8.38004 0.478455 10.04C0.478455 11.7 1.81845 13.04 3.47845 13.04C4.26845 13.04 4.97845 12.73 5.51845 12.23L12.6385 16.39C12.5885 16.6 12.5585 16.82 12.5585 17.04C12.5585 18.65 13.8685 19.96 15.4785 19.96C17.0885 19.96 18.3985 18.65 18.3985 17.04C18.3985 15.43 17.0885 14.12 15.4785 14.12ZM15.4785 2.04004C16.0285 2.04004 16.4785 2.49004 16.4785 3.04004C16.4785 3.59004 16.0285 4.04004 15.4785 4.04004C14.9285 4.04004 14.4785 3.59004 14.4785 3.04004C14.4785 2.49004 14.9285 2.04004 15.4785 2.04004ZM3.47845 11.04C2.92845 11.04 2.47845 10.59 2.47845 10.04C2.47845 9.49004 2.92845 9.04004 3.47845 9.04004C4.02845 9.04004 4.47845 9.49004 4.47845 10.04C4.47845 10.59 4.02845 11.04 3.47845 11.04ZM15.4785 18.06C14.9285 18.06 14.4785 17.61 14.4785 17.06C14.4785 16.51 14.9285 16.06 15.4785 16.06C16.0285 16.06 16.4785 16.51 16.4785 17.06C16.4785 17.61 16.0285 18.06 15.4785 18.06Z" fill="#000045"/>
</svg>
