<svg width="22" height="18" viewBox="0 0 22 18" fill="none" xmlns="http://www.w3.org/2000/svg">
<g clip-path="url(#clip0_596566_8640)">
<path d="M11.3222 6.24744C11.2436 5.92531 11.204 5.59478 11.2044 5.26307C11.2135 4.11976 11.6721 3.0267 12.4798 2.22347C13.2874 1.42025 14.3783 0.972394 15.5132 0.978081C16.1009 0.976898 16.6828 1.09555 17.2238 1.32689C17.7648 1.55822 18.2538 1.89746 18.6612 2.32418C19.624 2.13749 20.5484 1.78739 21.3948 1.28881C21.0686 2.28476 20.3947 3.12761 19.4982 3.66079C20.3522 3.55827 21.1869 3.33177 21.9764 2.98834C21.3942 3.85164 20.6643 4.6038 19.8208 5.2097L19.8349 5.76118C19.8383 7.37711 19.5228 8.97759 18.9068 10.4696C18.2907 11.9616 17.3864 13.3153 16.2464 14.4521C15.1064 15.5888 13.7534 16.486 12.2662 17.0913C10.7789 17.6966 9.18708 17.998 7.58317 17.9781C5.24328 17.9759 2.95212 17.3043 0.976379 16.0414C1.31725 16.0798 1.65996 16.0992 2.00295 16.0995C3.9394 16.1053 5.82227 15.4592 7.35243 14.2636C6.45768 14.2495 5.58942 13.9555 4.86801 13.4221C4.1466 12.8887 3.60776 12.1424 3.32619 11.2867C3.59456 11.3366 3.86679 11.3624 4.13968 11.3638C4.52312 11.3638 4.90496 11.314 5.27574 11.2156C4.30686 11.0228 3.43388 10.4986 2.80464 9.73175C2.17539 8.96492 1.82854 8.00257 1.82283 7.00766V6.97564C2.42846 7.29083 3.09585 7.46701 3.77709 7.49155C3.18792 7.10294 2.7038 6.57297 2.36825 5.94924C2.03269 5.32552 1.85619 4.62759 1.85462 3.91815C1.85817 3.15928 2.06128 2.41492 2.44325 1.76084C3.53166 3.09014 4.88361 4.17584 6.41254 4.94842C7.94148 5.72101 9.6137 6.16346 11.3222 6.24744" fill="#000045"/>
</g>
<defs>
<clipPath id="clip0_596566_8640">
<rect width="21" height="17" fill="white" transform="translate(0.976379 0.978027)"/>
</clipPath>
</defs>
</svg>
