<svg width="22" height="18" viewBox="0 0 22 18" fill="none" xmlns="http://www.w3.org/2000/svg">
<g clip-path="url(#clip0_596566_8485)">
<path d="M11.3222 5.76941C11.2436 5.44729 11.204 5.11675 11.2044 4.78504C11.2135 3.64173 11.6721 2.54867 12.4798 1.74544C13.2874 0.942219 14.3783 0.494367 15.5132 0.500054C16.1009 0.498871 16.6828 0.61752 17.2238 0.848858C17.7648 1.0802 18.2538 1.41944 18.6612 1.84615C19.624 1.65946 20.5484 1.30936 21.3948 0.810783C21.0686 1.80674 20.3947 2.64958 19.4982 3.18277C20.3522 3.08024 21.1869 2.85374 21.9764 2.51031C21.3942 3.37361 20.6643 4.12577 19.8208 4.73167L19.8349 5.28316C19.8383 6.89908 19.5228 8.49956 18.9068 9.99156C18.2907 11.4835 17.3864 12.8373 16.2464 13.974C15.1064 15.1108 13.7534 16.0079 12.2662 16.6133C10.7789 17.2186 9.18708 17.52 7.58317 17.5001C5.24328 17.4979 2.95212 16.8262 0.976379 15.5633C1.31725 15.6017 1.65996 15.6211 2.00295 15.6214C3.9394 15.6273 5.82227 14.9811 7.35243 13.7855C6.45768 13.7715 5.58942 13.4774 4.86801 12.944C4.1466 12.4107 3.60776 11.6644 3.32619 10.8087C3.59456 10.8585 3.86679 10.8843 4.13968 10.8858C4.52312 10.8858 4.90496 10.836 5.27574 10.7375C4.30686 10.5447 3.43388 10.0206 2.80464 9.25372C2.17539 8.48689 1.82854 7.52454 1.82283 6.52963V6.49761C2.42846 6.8128 3.09585 6.98899 3.77709 7.01352C3.18792 6.62491 2.7038 6.09494 2.36825 5.47122C2.03269 4.8475 1.85619 4.14956 1.85462 3.44013C1.85817 2.68126 2.06128 1.93689 2.44325 1.28281C3.53166 2.61211 4.88361 3.69781 6.41254 4.4704C7.94148 5.24298 9.6137 5.68543 11.3222 5.76941" fill="white"/>
</g>
<defs>
<clipPath id="clip0_596566_8485">
<rect width="21" height="17" fill="white" transform="translate(0.976379 0.5)"/>
</clipPath>
</defs>
</svg>
