<svg width="24" height="17" viewBox="0 0 24 17" fill="none" xmlns="http://www.w3.org/2000/svg">
<g clip-path="url(#clip0_596566_8652)">
<path d="M23.1258 3.88789C23.0402 3.20003 22.7171 2.56284 22.2116 2.08472C21.7061 1.6066 21.0493 1.31709 20.3529 1.26542C19.4805 1.14011 15.2987 0.979004 11.9769 0.979004C8.6551 0.979004 4.47215 1.14123 3.59972 1.26654C2.90355 1.31816 2.24689 1.60752 1.74138 2.08541C1.23586 2.5633 0.912713 3.20023 0.826868 3.88789C0.613607 5.53225 0.496562 7.1875 0.476318 8.84531V9.11046C0.496518 10.7686 0.613564 12.4243 0.826868 14.069C0.912676 14.7568 1.23578 15.3939 1.74128 15.8719C2.24677 16.35 2.90345 16.6396 3.59972 16.6915C4.47328 16.8168 8.66073 16.979 11.9836 16.979H11.9667C15.2896 16.979 19.4771 16.8168 20.3507 16.6915C21.0473 16.6401 21.7045 16.3507 22.2105 15.8726C22.7164 15.3945 23.0399 14.7571 23.1258 14.069C23.3391 12.4243 23.4561 10.7686 23.4763 9.11046V8.84531C23.4561 7.1875 23.339 5.53225 23.1258 3.88789M9.5884 12.1469V5.73615L15.6977 8.8688L9.5884 12.1469Z" fill="#000045"/>
</g>
<defs>
<clipPath id="clip0_596566_8652">
<rect width="23" height="16" fill="white" transform="translate(0.476318 0.978027)"/>
</clipPath>
</defs>
</svg>
