<svg width="24" height="17" viewBox="0 0 24 17" fill="none" xmlns="http://www.w3.org/2000/svg">
<g clip-path="url(#clip0_596566_8497)">
<path d="M23.1258 3.40986C23.0402 2.722 22.7171 2.08481 22.2116 1.60669C21.7061 1.12858 21.0493 0.839058 20.3529 0.78739C19.4805 0.662084 15.2987 0.500977 11.9769 0.500977C8.6551 0.500977 4.47215 0.663203 3.59972 0.788509C2.90355 0.840132 2.24689 1.12949 1.74138 1.60738C1.23586 2.08527 0.912713 2.7222 0.826868 3.40986C0.613607 5.05422 0.496562 6.70947 0.476318 8.36728V8.63244C0.496518 10.2906 0.613564 11.9462 0.826868 13.591C0.912676 14.2788 1.23578 14.9158 1.74128 15.3939C2.24677 15.872 2.90345 16.1616 3.59972 16.2134C4.47328 16.3388 8.66073 16.501 11.9836 16.501H11.9667C15.2896 16.501 19.4771 16.3388 20.3507 16.2134C21.0473 16.1621 21.7045 15.8727 22.2105 15.3946C22.7164 14.9165 23.0399 14.2791 23.1258 13.591C23.3391 11.9462 23.4561 10.2906 23.4763 8.63244V8.36728C23.4561 6.70947 23.339 5.05422 23.1258 3.40986M9.5884 11.6689V5.25813L15.6977 8.39078L9.5884 11.6689Z" fill="white"/>
</g>
<defs>
<clipPath id="clip0_596566_8497">
<rect width="23" height="16" fill="white" transform="translate(0.476318 0.5)"/>
</clipPath>
</defs>
</svg>
