<?xml version="1.0" encoding="UTF-8"?><svg id="Layer_1" xmlns="http://www.w3.org/2000/svg" viewBox="0 0 339.9 70.68"><defs><style>.cls-1{fill:#ff8900;}.cls-2{fill:#35c380;}.cls-3{fill:#c500ee;}.cls-4{fill:#000046;}.cls-5{fill:#e40052;}.cls-6{fill:#5000f2;}.cls-7{fill:#ff38d0;}</style></defs><path class="cls-5" d="m216.41,49.36c19.52,0,29.93-6.02,29.93-16.12s-10.41-16.12-29.93-16.12-29.92,6.03-29.92,16.12,10.4,16.12,29.92,16.12m-13.11-16.12c0-5.76,1.7-11.07,13.11-11.07s13.11,5.31,13.11,11.07-1.71,11.07-13.11,11.07-13.11-5.31-13.11-11.07"/><path class="cls-5" d="m145.21,29.66c0-4.66,4.28-8.41,12.97-8.41s10.26,3.24,10.26,6.22h16.82c0-5.7-5.41-11.27-25.79-11.27-18.52,0-27.82,4.74-30.33,10.99-20.42-.03-27.8-7.45-27.8-13.72,0-4.67,4.27-8.42,12.96-8.42s10.26,3.24,10.26,6.22h16.81c0-5.69-5.41-11.26-25.79-11.26-21.9,0-31.05,4.68-31.05,17.04v1.55s0,29.46,0,29.46h15.82v-18.06c5.79,1.54,12.84,2.25,20.51,2.25,2.59,0,5.13-.07,7.6-.21.89,11.72,16.51,16.42,36.28,16.42,7.13,0,13.82-.58,19.8-1.42v-4.4c-3.27.51-6.83.78-11.39.78-20.51,0-27.93-7.45-27.93-13.73"/><path class="cls-5" d="m250.59,28.93c.01.23.01.45,0,.68v-.68Zm70.38-12.26c-10.83,0-17.1,3.82-19.09,6.15h-.28c-2-4.27-8.98-6.15-17.11-6.15-11.11,0-15.95,3.49-17.81,5.44h-.28v-4.73h-23.09v5.06c4.31,0,7.1,3.18,7.27,6.49v19.28h15.81v-13.34c0-4.86,4.56-11.47,13.68-11.47,5.56,0,6.98.91,6.98,7.19v17.62h15.81v-13.34c0-4.86,4.56-11.47,13.68-11.47,5.56,0,6.98.91,6.98,7.19v17.62h15.82v-21.37c0-7.06-8.4-10.17-18.38-10.17"/><rect class="cls-4" x="197.38" y="61.14" width="142.52" height="9.54"/><rect class="cls-7" x="120.32" y="61.14" width="19.26" height="9.54"/><rect class="cls-3" x="139.58" y="61.14" width="32.11" height="9.54"/><rect class="cls-1" x="101.06" y="61.14" width="19.26" height="9.54"/><rect class="cls-2" x="56.11" y="61.14" width="44.95" height="9.54"/><rect class="cls-4" x=".78" y="61.14" width="55.33" height="9.54"/><path class="cls-5" d="m41.1,48.87c31.68,0,41.1-10.38,41.1-23.83S72.78,1.2,41.1,1.2,0,11.58,0,25.04s9.28,23.83,41.1,23.83m-22.1-23.83c0-9.85,4.56-18.27,22.1-18.27s22.1,8.43,22.1,18.27-4.72,18.27-22.1,18.27-22.1-8.43-22.1-18.27"/><rect class="cls-6" x="171.69" y="61.14" width="25.69" height="9.54"/></svg>